<?xml version="1.0" encoding="utf-8"?>
<!-- Generator: Adobe Illustrator 27.9.0, SVG Export Plug-In . SVG Version: 6.00 Build 0)  -->
<svg version="1.1" id="레이어_1" xmlns="http://www.w3.org/2000/svg" xmlns:xlink="http://www.w3.org/1999/xlink" x="0px"
	 y="0px" viewBox="0 0 200 200" style="enable-background:new 0 0 200 200; width:100%; height:100%;" xml:space="preserve">
<style type="text/css">
	.st0{fill:#5F52DA;}
</style>
<g>
	<g>
		<path class="st0" d="M52.2,95.3c-2.2,3.7-5.1,5.6-8.9,5.6c-3.2,0-5.8-1.1-7.8-3.5c-2-2.5-3.1-5.7-3.1-9.6c0-4.3,1.2-8.1,3.5-11.5
			c2.6-3.9,5.9-5.9,9.9-5.9c3.9,0,6.7,1.6,8.2,4.9l1.7-16.7l4.5,0l-4.1,41.6l-3.7,0L52.2,95.3z M45.9,74.7c-1.3,0-2.5,0.4-3.7,1.3
			c-1.2,0.8-2.1,1.9-2.9,3.2c-1.5,2.5-2.2,5.2-2.2,8.2c0,3,0.7,5.3,2,7c1.3,1.6,3,2.4,5.1,2.4c2,0,3.7-0.8,5.3-2.3
			c1.7-1.7,2.8-3.9,3.1-6.7l0.4-4.3c0.3-2.8-0.3-5.1-1.7-6.6C50.2,75.3,48.4,74.6,45.9,74.7z"/>
		<path class="st0" d="M82.8,81c0.3-2.6-0.1-4.5-1-5.7c-0.9-1.1-2.4-1.7-4.3-1.7c-2,0-3.6,0.4-4.9,1.3c-1.3,0.8-2,2.2-2.2,4l-5.1,0
			c0.3-3.2,1.6-5.4,3.9-6.8c2.3-1.4,5-2.1,8.3-2.1c5.2,0,8.3,2,9.4,6c0.4,1.4,0.5,3,0.3,5l-1.9,18.8l-3.8,0v-4.9
			c-2.1,3.7-5.4,5.6-9.8,5.6c-2.7,0-4.9-0.7-6.6-2.3c-1.5-1.4-2.3-3.1-2.3-5c0-1.9,0.3-3.5,0.9-4.6c0.6-1.2,1.4-2.2,2.5-3
			c2.1-1.6,4.7-2.4,7.7-2.5c3,0,5.8,0.5,8.4,1.5L82.8,81z M82.1,87.8c-2.6-0.8-5-1.2-7.1-1.2c-2.1,0-3.8,0.5-5.2,1.4
			c-1.3,0.9-2,2.4-2,4.5c0,1.3,0.4,2.4,1.2,3.2c0.8,0.8,2.2,1.2,4.2,1.2c2.2,0,4.1-0.8,5.8-2.3c1.9-1.6,2.9-3.7,3.1-6.3L82.1,87.8z"
			/>
	</g>
	<g>
		<path class="st0" d="M56.2,122.5c2-3.9,4.9-5.9,9-5.9c2.9,0,5.1,1.1,6.5,3.4c1.3,2,1.8,5,1.5,8.8l-1.5,16h-6.3l1.5-16
			c0.2-2-0.1-3.5-0.8-4.5c-0.8-1-1.9-1.5-3.5-1.5c-1.6,0-3,0.8-4.1,2.3c-1.2,1.6-1.9,4-2.2,7.3l-1.1,12.3H49l1.5-16
			c0.2-2,0-3.5-0.8-4.5c-0.8-1-1.9-1.5-3.5-1.5c-1.6,0-3,0.8-4.3,2.4c-1.3,1.6-2.1,4.1-2.4,7.4l-1.1,12.2h-6.2l2.6-27.5h5.4
			c0,0.8,0.1,1.6,0.1,2.3c0,0.8,0,1.5,0.1,2.3c2-3.6,4.8-5.4,8.3-5.4c2.1,0,3.7,0.5,5,1.6C54.8,119.2,55.7,120.6,56.2,122.5z"/>
		<path class="st0" d="M91.1,116.6c1.7,0,3.2,0.3,4.7,0.9c1.4,0.6,2.6,1.5,3.6,2.7c2.1,2.6,2.9,6.2,2.5,11
			c-0.4,4.6-1.9,8.2-4.5,10.8c-2.4,2.4-5.4,3.6-8.9,3.6c-3.5,0-6.3-1.2-8.2-3.6c-2.1-2.6-2.9-6.2-2.5-10.8c0.4-4.7,1.9-8.4,4.5-11
			C84.6,117.8,87.5,116.6,91.1,116.6z M95.6,131.1c0.3-2.9,0-5-0.9-6.4c-0.9-1.4-2.2-2.1-3.9-2.1s-3.3,0.7-4.5,2.1
			c-1.3,1.4-2,3.5-2.3,6.4c-0.3,2.9,0,5,0.9,6.4c0.9,1.4,2.2,2.1,3.9,2.1c1.7,0,3.2-0.7,4.5-2.1C94.5,136.1,95.3,133.9,95.6,131.1z"
			/>
		<path class="st0" d="M121.7,139.9c-1.9,3.6-4.5,5.4-8,5.4c-4.4,0-7.1-1.9-8.1-5.6c-0.4-1.3-0.5-2.9-0.3-4.8l1.7-17.5h6.1
			l-1.6,16.8c-0.2,1.8,0.1,3.1,0.8,3.9c0.7,0.9,1.8,1.3,3.3,1.3s3-0.7,4.4-2.2c1.4-1.5,2.2-3.7,2.5-6.7l1.2-13.1h6.2l-2.5,27.5h-6.3
			L121.7,139.9z"/>
		<path class="st0" d="M157.3,122.5c2-3.9,4.9-5.9,9-5.9c2.9,0,5.1,1.1,6.5,3.4c1.3,2,1.8,5,1.5,8.8l-1.5,16h-6.3l1.5-16
			c0.2-2-0.1-3.5-0.8-4.5c-0.8-1-1.9-1.5-3.5-1.5c-1.6,0-3,0.8-4.1,2.3c-1.2,1.6-1.9,4-2.2,7.3l-1.1,12.3H150l1.5-16
			c0.2-2,0-3.5-0.8-4.5s-1.9-1.5-3.5-1.5c-1.6,0-3,0.8-4.3,2.4c-1.3,1.6-2.1,4.1-2.4,7.4l-1.1,12.2h-6.2l2.6-27.5h5.4
			c0,0.8,0.1,1.6,0.1,2.3c0,0.8,0,1.5,0.1,2.3c2-3.6,4.8-5.4,8.3-5.4c2.1,0,3.7,0.5,5,1.6C155.9,119.2,156.7,120.6,157.3,122.5z"/>
	</g>
</g>
</svg>
